# xmcd
#
# Track frame offsets:
# 182
# 28855
# 49612
# 75390
# 102920
# 124755
# 146892
# 178075
# 193667
# 205095
# 224262
# 246490
#
# Disc length: 3647 seconds
#
#
# Revision: 2
# Processed by: cddbd v1.4PL0 Copyright (c) Steve Scherf et al.
# Submitted via: FreeRIP 2.10 
#
DISCID=b00e3d0c
DTITLE=Vance Kelly - Call Me
DYEAR=1900
DGENRE=Jazz
TTITLE0=Doing My Own Thang
TTITLE1=Wall To Wall
TTITLE2=Hurt So Bad
TTITLE3=Woman In Every Town
TTITLE4=That's The Way Love Is
TTITLE5=Somebody As Good As You
TTITLE6=In Of The Rainbow
TTITLE7=Use Me Right
TTITLE8=She Ain't Good Looking
TTITLE9=Drivein Wheel
TTITLE10=Call Me
TTITLE11=Dog On A Chain
EXTD=
EXTT0=
EXTT1=
EXTT2=
EXTT3=
EXTT4=
EXTT5=
EXTT6=
EXTT7=
EXTT8=
EXTT9=
EXTT10=
EXTT11=
PLAYORDER=
